<svg width="24" height="24" viewBox="0 0 24 24" fill="none" xmlns="http://www.w3.org/2000/svg">
<mask id="mask0_2082_2254" style="mask-type:alpha" maskUnits="userSpaceOnUse" x="0" y="0" width="24" height="24">
<rect width="24" height="24" fill="#D9D9D9"/>
</mask>
<g mask="url(#mask0_2082_2254)">
<path d="M4.99998 20.75C4.23609 20.75 3.58679 20.4826 3.05208 19.9479C2.51736 19.4132 2.25 18.7639 2.25 18V11C2.25 10.2361 2.51736 9.58681 3.05208 9.05209C3.58679 8.51738 4.23609 8.25002 4.99998 8.25002C5.43074 8.25002 5.82561 8.34169 6.18458 8.52502C6.54356 8.70835 6.8551 8.95002 7.1192 9.25002H8.25V4.4231H17.75V9.25002H19C19.7639 9.25002 20.4132 9.51738 20.9479 10.0521C21.4826 10.5868 21.75 11.2361 21.75 12V19.75H7.1192C6.8551 20.05 6.54356 20.2916 6.18458 20.475C5.82561 20.6583 5.43074 20.75 4.99998 20.75ZM4.99998 19.25C5.34741 19.25 5.64261 19.1285 5.88558 18.8856C6.12853 18.6426 6.25 18.3474 6.25 18V11C6.25 10.6526 6.12853 10.3574 5.88558 10.1144C5.64261 9.87145 5.34741 9.74997 4.99998 9.74997C4.65254 9.74997 4.35734 9.87145 4.11438 10.1144C3.87143 10.3574 3.74995 10.6526 3.74995 11V18C3.74995 18.3474 3.87143 18.6426 4.11438 18.8856C4.35734 19.1285 4.65254 19.25 4.99998 19.25ZM9.74995 9.25002H16.25V5.92307H9.74995V9.25002ZM7.74995 18.25H20.25V12C20.25 11.6526 20.1285 11.3574 19.8856 11.1144C19.6426 10.8714 19.3474 10.75 19 10.75H7.74995V18.25ZM15 14C15.2833 14 15.5208 13.9042 15.7125 13.7125C15.9041 13.5208 16 13.2833 16 13C16 12.7167 15.9041 12.4792 15.7125 12.2875C15.5208 12.0958 15.2833 12 15 12C14.7166 12 14.4791 12.0958 14.2875 12.2875C14.0958 12.4792 14 12.7167 14 13C14 13.2833 14.0958 13.5208 14.2875 13.7125C14.4791 13.9042 14.7166 14 15 14ZM18 14C18.2833 14 18.5208 13.9042 18.7125 13.7125C18.9041 13.5208 19 13.2833 19 13C19 12.7167 18.9041 12.4792 18.7125 12.2875C18.5208 12.0958 18.2833 12 18 12C17.7166 12 17.4791 12.0958 17.2875 12.2875C17.0958 12.4792 17 12.7167 17 13C17 13.2833 17.0958 13.5208 17.2875 13.7125C17.4791 13.9042 17.7166 14 18 14ZM15 17C15.2833 17 15.5208 16.9042 15.7125 16.7125C15.9041 16.5208 16 16.2833 16 16C16 15.7167 15.9041 15.4792 15.7125 15.2875C15.5208 15.0958 15.2833 15 15 15C14.7166 15 14.4791 15.0958 14.2875 15.2875C14.0958 15.4792 14 15.7167 14 16C14 16.2833 14.0958 16.5208 14.2875 16.7125C14.4791 16.9042 14.7166 17 15 17ZM18 17C18.2833 17 18.5208 16.9042 18.7125 16.7125C18.9041 16.5208 19 16.2833 19 16C19 15.7167 18.9041 15.4792 18.7125 15.2875C18.5208 15.0958 18.2833 15 18 15C17.7166 15 17.4791 15.0958 17.2875 15.2875C17.0958 15.4792 17 15.7167 17 16C17 16.2833 17.0958 16.5208 17.2875 16.7125C17.4791 16.9042 17.7166 17 18 17ZM8.99998 17H13V12H8.99998V17Z" fill="#1D97F2"/>
</g>
</svg>
