<svg width="24" height="24" viewBox="0 0 24 24" fill="none" xmlns="http://www.w3.org/2000/svg">
<mask id="mask0_2082_2248" style="mask-type:alpha" maskUnits="userSpaceOnUse" x="0" y="0" width="24" height="24">
<rect width="24" height="24" fill="#D9D9D9"/>
</mask>
<g mask="url(#mask0_2082_2248)">
<path d="M19.0384 11.7307C18.9807 9.81278 18.2823 8.18425 16.9432 6.84515C15.6041 5.50605 13.9756 4.80765 12.0577 4.74995V3.25C13.2243 3.27563 14.3166 3.51473 15.3346 3.9673C16.3525 4.41987 17.2416 5.02628 18.0019 5.78653C18.7621 6.54678 19.3685 7.43588 19.8211 8.45383C20.2737 9.47176 20.5128 10.5641 20.5384 11.7307H19.0384ZM15.0385 11.7307C14.9808 10.9294 14.6699 10.2452 14.1058 9.67785C13.5416 9.11053 12.859 8.80124 12.0577 8.74995V7.25C13.2743 7.30128 14.3109 7.75673 15.1672 8.61633C16.0236 9.47594 16.4807 10.5141 16.5384 11.7307H15.0385ZM19.4403 20.5C17.5557 20.5 15.6625 20.0618 13.7605 19.1855C11.8586 18.3092 10.1096 17.073 8.51345 15.4769C6.92372 13.8807 5.69071 12.1333 4.81442 10.2346C3.93814 8.33588 3.5 6.44423 3.5 4.55963C3.5 4.25963 3.6 4.00802 3.8 3.80482C4 3.60161 4.25 3.5 4.55 3.5H7.8115C8.06407 3.5 8.28682 3.58238 8.47977 3.74713C8.67272 3.91188 8.79548 4.1154 8.84802 4.3577L9.4211 7.29998C9.46085 7.57306 9.45252 7.80768 9.3961 8.00383C9.3397 8.19998 9.23842 8.36472 9.09225 8.49805L6.78265 10.7461C7.15445 11.4269 7.57913 12.0708 8.0567 12.6779C8.53427 13.2849 9.05125 13.8647 9.60765 14.4173C10.1564 14.966 10.7397 15.4756 11.3577 15.9462C11.9756 16.4167 12.6429 16.8545 13.3596 17.2596L15.6038 14.9962C15.7602 14.8333 15.9497 14.7192 16.1721 14.6539C16.3945 14.5885 16.6256 14.5724 16.8654 14.6058L19.6422 15.1712C19.8948 15.2378 20.1009 15.3667 20.2605 15.5577C20.4201 15.7487 20.5 15.9654 20.5 16.2077V19.45C20.5 19.75 20.3983 20 20.1951 20.2C19.9919 20.4 19.7403 20.5 19.4403 20.5ZM6.07305 9.32693L7.85768 7.61923C7.88973 7.59358 7.91056 7.55832 7.92018 7.51345C7.92979 7.46857 7.92819 7.4269 7.91537 7.38845L7.48075 5.15383C7.46793 5.10254 7.4455 5.06408 7.41345 5.03845C7.3814 5.0128 7.33973 4.99998 7.28845 4.99998H5.14997C5.11152 4.99998 5.07948 5.0128 5.05383 5.03845C5.02817 5.06408 5.01535 5.09613 5.01535 5.1346C5.06663 5.81793 5.17849 6.51217 5.35092 7.2173C5.52337 7.92243 5.76408 8.62564 6.07305 9.32693ZM14.773 17.9692C15.4359 18.2782 16.1272 18.5144 16.8471 18.6779C17.567 18.8413 18.2397 18.9384 18.8654 18.9692C18.9038 18.9692 18.9359 18.9564 18.9615 18.9308C18.9871 18.9051 19 18.873 19 18.8346V16.7308C19 16.6795 18.9871 16.6378 18.9615 16.6057C18.9359 16.5737 18.8974 16.5512 18.8461 16.5384L16.7461 16.1115C16.7077 16.0987 16.674 16.0971 16.6452 16.1067C16.6163 16.1163 16.5859 16.1372 16.5538 16.1692L14.773 17.9692Z" fill="#1D97F2"/>
</g>
</svg>
