<svg width="24" height="24" viewBox="0 0 24 24" fill="none" xmlns="http://www.w3.org/2000/svg">
<g clip-path="url(#clip0_2011_701)">
<path d="M4.43517 11.4379C3.98011 10.9828 3.23962 10.9485 2.76666 11.385C2.61539 11.5246 2.50898 11.6934 2.44706 11.874V5.71132C2.44706 5.03557 1.89928 4.48779 1.22353 4.48779C0.547781 4.48779 0 5.03557 0 5.71132V14.3238C0 14.9952 0.182859 15.654 0.528891 16.2293L1.96317 18.6139C2.11697 18.8697 2.19825 19.1624 2.19825 19.4608V23.4146C2.19825 23.7379 2.46033 24 2.78362 24H7.5893C7.91259 24 8.17467 23.7379 8.17467 23.4146V20.1335L8.79966 18.6941C8.92931 18.3955 8.9962 18.0734 8.9962 17.7478V16.9715C8.9962 16.3488 8.74884 15.7516 8.3085 15.3113L4.43517 11.4379Z" fill="#FED2A4"/>
<path d="M22.7764 4.48779C22.1007 4.48779 21.5529 5.03557 21.5529 5.71132V11.874C21.491 11.6934 21.3846 11.5246 21.2333 11.385C20.7603 10.9485 20.0199 10.9828 19.5648 11.4379L15.6914 15.3113C15.2511 15.7516 15.0037 16.3488 15.0037 16.9715V17.7478C15.0037 18.0734 15.0706 18.3955 15.2003 18.6941L15.8253 20.1335V23.4146C15.8253 23.7379 16.0873 24 16.4106 24H21.2163C21.5396 24 21.8017 23.7379 21.8017 23.4146V22.439V19.4608C21.8017 19.1624 21.883 18.8697 22.0368 18.6139L23.471 16.2293C23.8171 15.6539 24 14.9952 24 14.3238V5.71132C24 5.03557 23.4522 4.48779 22.7764 4.48779Z" fill="#FED2A4"/>
<path d="M8.30856 15.3113L4.43519 11.4379C4.03094 11.0336 3.40192 10.9624 2.93481 11.2572C3.0175 11.3075 3.09597 11.367 3.16689 11.4379L7.04027 15.3113C7.48061 15.7516 7.72797 16.3488 7.72797 16.9715V17.7478C7.72797 18.0734 7.66108 18.3955 7.53138 18.6941L6.98838 19.9446C6.93428 20.0692 6.90639 20.2035 6.90639 20.3393V23.4146C6.90639 23.7379 6.64431 23.9999 6.32102 23.9999H7.58931C7.91261 23.9999 8.17469 23.7379 8.17469 23.4146V20.1334L8.79967 18.6941C8.92933 18.3954 8.99627 18.0733 8.99627 17.7478V16.9714C8.99627 16.3488 8.74891 15.7516 8.30856 15.3113Z" fill="#FFBD86"/>
<path d="M22.7765 4.48779C22.5443 4.48779 22.3273 4.55248 22.1423 4.66475C22.4957 4.87929 22.7317 5.26775 22.7317 5.71132V14.3238C22.7317 14.9952 22.5489 15.654 22.2029 16.2293L20.7686 18.6139C20.6148 18.8697 20.5335 19.1624 20.5335 19.4608V23.4146C20.5335 23.7379 20.2714 24 19.9481 24H21.2164C21.5397 24 21.8018 23.7379 21.8018 23.4146V19.4608C21.8018 19.1624 21.8831 18.8697 22.0369 18.6139L23.4712 16.2293C23.8171 15.6539 24 14.9952 24 14.3238V5.71132C24 5.03557 23.4522 4.48779 22.7765 4.48779Z" fill="#FFBD86"/>
<path d="M18.8894 7.9715L18.4605 7.67455L19.0061 7.35336C19.1189 7.07413 19.1812 6.76906 19.1812 6.44942C19.1812 5.47803 18.6075 4.64108 17.7807 4.25755C17.4757 3.15383 16.4649 2.34317 15.2642 2.34317C15.0229 2.34317 14.7895 2.37659 14.5677 2.43786C14.2004 2.2123 13.7683 2.08203 13.3056 2.08203C12.8245 2.08203 12.3765 2.22331 12 2.4658C11.6234 2.22331 11.1755 2.08203 10.6943 2.08203C10.2317 2.08203 9.79957 2.2123 9.43226 2.43786C9.21044 2.37659 8.97705 2.34317 8.73579 2.34317C7.53504 2.34317 6.52427 3.15388 6.21921 4.25755C5.39243 4.64108 4.81873 5.47803 4.81873 6.44942C4.81873 6.76906 4.88098 7.07413 4.9938 7.35336L5.63852 7.67455L4.98138 8.05648C4.8768 8.30516 4.81873 8.5782 4.81873 8.86489C4.81873 10.0187 5.75407 10.954 6.9078 10.954C6.94488 10.954 6.98173 10.9529 7.01834 10.951C7.2484 11.5302 7.81348 11.9398 8.4746 11.9398C8.77605 11.9398 9.05744 11.8545 9.29641 11.707C9.64798 11.9757 10.0871 12.1357 10.5637 12.1357C10.9612 12.1357 11.3322 12.024 11.6484 11.8312L12 11.0769L12.3515 11.8312C12.6677 12.024 13.0388 12.1357 13.4362 12.1357C13.9129 12.1357 14.352 11.9757 14.7035 11.707C14.9425 11.8545 15.2239 11.9398 15.5254 11.9398C16.1865 11.9398 16.7516 11.5302 16.9816 10.951C17.0182 10.9529 17.0551 10.954 17.0921 10.954C18.2459 10.954 19.1812 10.0187 19.1812 8.86489C19.1812 8.5782 19.1231 8.30516 19.0186 8.05648L18.8894 7.9715Z" fill="#99C1FE"/>
<path d="M18.8895 7.97143L18.4605 7.67448L19.0062 7.35329C19.119 7.07406 19.1812 6.76899 19.1812 6.44935C19.1812 5.47796 18.6075 4.64101 17.7808 4.25748C17.4896 3.20387 16.555 2.41782 15.4262 2.34863C16.2677 3.43843 16.7686 4.8046 16.7686 6.28796C16.7686 8.85334 15.2713 11.0689 13.103 12.1087C13.2115 12.1261 13.3228 12.1357 13.4362 12.1357C13.9129 12.1357 14.352 11.9758 14.7036 11.707C14.9425 11.8546 15.2239 11.9399 15.5254 11.9399C16.1865 11.9399 16.7516 11.5302 16.9816 10.951C17.0182 10.953 17.0551 10.954 17.0922 10.954C18.246 10.954 19.1812 10.0187 19.1812 8.86491C19.1812 8.57823 19.1232 8.30518 19.0186 8.05651L18.8895 7.97143Z" fill="#80B2FD"/>
<path d="M22.2497 11.7662C22.2385 11.7114 22.2272 11.6696 22.212 11.6287C22.1098 11.3398 21.9365 11.0773 21.7102 10.8684C21.6601 10.8221 21.6074 10.7792 21.553 10.739V11.8742L21.5531 11.8741C21.696 12.2909 21.6012 12.7711 21.2687 13.1037L18.9116 15.4607C18.8457 15.5267 18.8087 15.6161 18.8087 15.7093V16.5166C18.8087 16.7107 18.9661 16.8682 19.1602 16.8682C19.3544 16.8682 19.5118 16.7107 19.5118 16.5166V15.8549L21.6634 13.7032C22.1704 13.1962 22.3941 12.4686 22.2497 11.7662Z" fill="#FFBD86"/>
<path d="M1.75027 11.7662C1.76156 11.7114 1.77277 11.6696 1.788 11.6287C1.89024 11.3398 2.06349 11.0773 2.2898 10.8684C2.33995 10.8221 2.39264 10.7792 2.44702 10.739V11.8742L2.44688 11.8741C2.304 12.2909 2.39883 12.7711 2.73136 13.1037L5.08838 15.4607C5.15433 15.5267 5.19136 15.6161 5.19136 15.7093V16.5166C5.19136 16.7107 5.03395 16.8682 4.8398 16.8682C4.64564 16.8682 4.48824 16.7107 4.48824 16.5166V15.8549L2.33658 13.7032C1.82963 13.1962 1.60594 12.4686 1.75027 11.7662Z" fill="#FFBD86"/>
<path d="M18.8296 7.70483C18.8976 7.59327 18.9567 7.47571 19.0062 7.35327H18.1083C17.7125 7.35327 17.3517 7.55418 17.1434 7.89065L16.8308 8.3953C16.7516 8.52332 16.6143 8.59977 16.4637 8.59977H15.8517C15.6575 8.59977 15.5002 8.75713 15.5002 8.95133C15.5002 9.14554 15.6575 9.3029 15.8517 9.3029H16.4637C16.8595 9.3029 17.2202 9.10199 17.4286 8.76552L17.7411 8.26087C17.8204 8.13285 17.9577 8.0564 18.1083 8.0564H19.0186C18.9666 7.93279 18.9033 7.81504 18.8296 7.70483Z" fill="#64A2FE"/>
<path d="M8.14821 8.59977H7.53626C7.38565 8.59977 7.2484 8.52332 7.16913 8.3953L6.85657 7.89065C6.64821 7.55418 6.28746 7.35327 5.8917 7.35327H4.99376C5.04321 7.47576 5.10232 7.59332 5.17034 7.70483C5.0966 7.81504 5.03337 7.93274 4.98138 8.0564H5.8917C6.04231 8.0564 6.17956 8.13285 6.25882 8.26087L6.57138 8.76552C6.77974 9.10199 7.14049 9.3029 7.53626 9.3029H8.14821C8.34242 9.3029 8.49977 9.14554 8.49977 8.95133C8.49977 8.75713 8.34242 8.59977 8.14821 8.59977Z" fill="#64A2FE"/>
<path d="M13.6572 9.51145C13.6572 9.31725 13.4999 9.15989 13.3056 9.15989H12.3516V6.56592C12.3516 6.37171 12.1942 6.21436 12 6.21436C11.8058 6.21436 11.6484 6.37171 11.6484 6.56592V9.15989H10.6943C10.5001 9.15989 10.3428 9.31725 10.3428 9.51145C10.3428 9.70565 10.5001 9.86301 10.6943 9.86301H11.6484V11.8313C11.7749 11.7541 11.893 11.6644 12 11.563C12.107 11.6644 12.225 11.7541 12.3516 11.8313V9.86301H13.3056C13.4999 9.86301 13.6572 9.70565 13.6572 9.51145Z" fill="#64A2FE"/>
<path d="M9.29606 5.72283L10.4558 6.44048L12.2508 6.49547L13.8345 6.01153L14.5208 5.14045L15.1632 2.94075L14.754 1.61653L14.4989 1.22058L14.3075 0.908203L14.074 0.679031C13.493 0.252469 12.7761 0 12 0C10.0623 0 8.49146 1.57083 8.49146 3.50855C8.49146 4.28466 8.74392 5.00156 9.17058 5.58258L9.29606 5.72283Z" fill="#EAF6FF"/>
<path d="M14.074 0.679199C14.5006 1.26021 14.7531 1.97712 14.7531 2.75323C14.7531 4.69095 13.1823 6.26178 11.2446 6.26178C10.4685 6.26178 9.75159 6.00931 9.17053 5.58265C9.80906 6.45232 10.8384 7.01717 12 7.01717C13.9377 7.01717 15.5085 5.44634 15.5085 3.50862C15.5085 2.34701 14.9437 1.31773 14.074 0.679199Z" fill="#D8ECFE"/>
<path d="M13.1671 2.72813H12.7805V2.3415C12.7805 1.91044 12.4311 1.56099 12 1.56104C11.5689 1.56104 11.2195 1.91049 11.2195 2.3415V2.72813H10.8329C10.4018 2.72813 10.0524 3.07754 10.0524 3.5086C10.0524 3.93966 10.4018 4.28911 10.8329 4.28907H11.2195V4.67569C11.2195 5.10675 11.5689 5.45616 12 5.45616C12.4311 5.45621 12.7805 5.10675 12.7805 4.67569V4.28907H13.1671C13.5981 4.28911 13.9476 3.93966 13.9476 3.5086C13.9476 3.07754 13.5981 2.72813 13.1671 2.72813Z" fill="#99C1FE"/>
</g>
<defs>
<clipPath id="clip0_2011_701">
<rect width="24" height="24" fill="white"/>
</clipPath>
</defs>
</svg>
