<svg width="24" height="24" viewBox="0 0 24 24" fill="none" xmlns="http://www.w3.org/2000/svg">
<path d="M12.9975 16.5037L10.264 21.5045C10.0971 21.8098 9.77693 21.9997 9.42902 21.9997C8.80141 21.9997 8.34569 21.4027 8.51112 20.7973L9.8306 15.9685L12.9975 16.5037Z" fill="#7CACF3"/>
<path d="M9.93871 16.3876C10.1992 18.122 8.86307 19.6133 7.17862 19.6133H6.68596C4.53079 19.6133 2.70773 17.7865 3.06468 15.6729L9.93871 16.3876Z" fill="#4486E9"/>
<path d="M7.17869 18.6315H6.68603C6.38758 18.6315 6.09048 18.583 5.80305 18.4874C5.61883 18.4261 5.51917 18.227 5.58044 18.0428C5.64175 17.8586 5.84069 17.7588 6.025 17.8202C6.24072 17.892 6.46314 17.9284 6.68603 17.9284H7.17869C7.53995 17.9284 7.87975 17.7506 8.08764 17.4529C8.29914 17.15 8.3432 16.7657 8.20853 16.3989C8.14164 16.2166 8.23516 16.0146 8.41741 15.9477C8.5997 15.8807 8.80169 15.9743 8.86858 16.1566C9.08355 16.7422 9.00906 17.3614 8.66416 17.8554C8.32488 18.3414 7.76955 18.6315 7.17869 18.6315Z" fill="#3174D8"/>
<path d="M15.8536 16.8206H8.46061H4.44975C3.2197 16.8206 2.10619 16.3215 1.30073 15.5147C0.708422 14.9214 0.70725 13.9609 1.30008 13.3681L1.69397 12.9742L1.61962 13.0486C1.02633 13.6418 0.00360937 13.2295 4.6875e-05 12.3905C0 12.3839 0 12.3773 0 12.3708C0 9.52683 1.14483 6.95025 2.99873 5.07675C3.37003 4.70157 3.97434 4.6965 4.34761 5.06972L4.47689 5.199C4.05366 4.77577 4.12322 4.071 4.62108 3.73875L4.62103 3.73871C6.26653 2.64071 8.24367 2.00049 10.3704 2.00049H11.0514C11.5753 2.00049 12 2.42522 12 2.9491C12 2.42518 12.4248 2.00049 12.9487 2.00049H15.0674C16.6458 2.00049 18.1568 2.40005 19.4849 3.11925C20.0401 3.41991 20.144 4.17413 19.6976 4.62066L19.9335 4.38474C20.2891 4.02914 20.8602 4.01311 21.236 4.34729C22.3355 5.32505 23.2012 6.5738 23.7505 8.00593C24.6938 10.5072 22.8454 13.1798 20.1722 13.1798H19.2008C19.1703 13.1798 19.1468 13.2058 19.1494 13.2362C19.1573 13.3297 19.1614 13.4243 19.1614 13.5199C19.1614 15.3451 17.6798 16.8244 15.8536 16.8206Z" fill="#B1CEF9"/>
<path d="M17.766 3.65497L18.0019 3.41905C18.3575 3.06345 18.9286 3.04742 19.3043 3.38159C19.5376 3.58906 19.7603 3.80867 19.9718 4.03967C20.006 3.67981 19.8354 3.30917 19.4849 3.11933C18.9719 2.8415 18.4315 2.61139 17.8706 2.43359C18.1268 2.79444 18.1065 3.31428 17.766 3.65497Z" fill="#95BCF7"/>
<path d="M23.7505 8.00593C23.2012 6.57371 22.3354 5.32501 21.2359 4.34719C20.9265 4.07204 20.4847 4.0344 20.1398 4.22822C20.847 5.04479 21.4175 5.99344 21.8189 7.04012C22.7622 9.54137 20.9138 12.2139 18.2406 12.2139H17.5622C17.3787 12.2139 17.2299 12.3628 17.2299 12.5463V12.5541C17.2299 14.3794 15.7483 15.8586 13.9221 15.8548H2.51818C2.18739 15.8548 1.86503 15.8187 1.55481 15.7502C2.33298 16.4175 3.34431 16.8206 4.44976 16.8206H15.8537C17.6798 16.8244 19.1614 15.3452 19.1614 13.5199C19.1614 13.4244 19.1574 13.3297 19.1494 13.2362C19.1468 13.2058 19.1703 13.1798 19.2008 13.1798H20.1722C22.8454 13.1797 24.6938 10.5071 23.7505 8.00593Z" fill="#95BCF7"/>
<path d="M3.57849 4.79787L5.6341 6.85348C5.7714 6.99078 5.99401 6.99078 6.13126 6.85348C6.26855 6.71618 6.26855 6.49357 6.13126 6.35632L4.20418 4.4292C4.17568 4.70154 4.2638 4.98603 4.4769 5.19912L4.34762 5.06984C4.13701 4.85923 3.85285 4.76909 3.57849 4.79787Z" fill="#95BCF7"/>
<path d="M13.6481 15.042C13.8423 15.042 13.9997 14.8846 13.9997 14.6904C13.9997 14.4963 13.8423 14.3389 13.6481 14.3389H9.14362C7.79169 14.3389 6.52068 14.8653 5.56476 15.8213L4.56543 16.8206H5.55979L6.06191 16.3184C6.88504 15.4953 7.97948 15.042 9.14357 15.042H13.6481Z" fill="#95BCF7"/>
<path d="M9.92332 4.33226L9.79432 3.66814C9.75729 3.47755 9.57283 3.353 9.38219 3.39008C9.1916 3.42711 9.0671 3.61165 9.10413 3.8022L9.23313 4.46633C9.30396 4.83083 9.09733 5.1949 8.75257 5.31322C8.47043 5.41001 8.19433 5.52748 7.92794 5.66379L7.21404 4.20809C7.12854 4.03376 6.91797 3.96176 6.7436 4.04722C6.56927 4.13272 6.49727 4.34333 6.58272 4.51765C7.04561 5.46158 7.51596 6.42073 7.98597 7.37914C8.04705 7.50369 8.17193 7.57597 8.30186 7.57597C8.3538 7.57597 8.40658 7.56439 8.45641 7.53997C8.63074 7.45447 8.70274 7.24386 8.61729 7.06953L8.23755 6.29511C8.47755 6.17164 8.72646 6.06547 8.9808 5.97819C9.65543 5.74676 10.0606 5.03909 9.92332 4.33226Z" fill="#95BCF7"/>
<path d="M3.31514 11.4C2.73126 10.8161 2.63044 9.88742 3.07528 9.19184L3.35784 8.74999C3.46242 8.5864 3.41465 8.36904 3.25111 8.26442C3.08747 8.15984 2.87011 8.20756 2.76553 8.37115L2.48297 8.81299C1.86159 9.78457 2.0025 11.0817 2.81798 11.8972L3.47062 12.5498C3.53925 12.6184 3.62925 12.6528 3.7192 12.6528C3.80915 12.6528 3.89915 12.6185 3.96778 12.5498C4.10508 12.4125 4.10508 12.1899 3.96778 12.0527L3.31514 11.4Z" fill="#95BCF7"/>
<path d="M19.8501 13.1796C19.7836 12.4666 19.5117 11.7867 19.0539 11.2216C18.5031 10.5421 17.742 10.0913 16.9013 9.93179L17.3743 8.51255C17.4357 8.32838 17.3362 8.12926 17.152 8.06785C16.9678 8.00644 16.7687 8.106 16.7073 8.29022L16.1815 9.86743H14.1659L14.7138 7.82583C14.7641 7.63833 14.6529 7.44549 14.4653 7.39515C14.278 7.3449 14.085 7.45604 14.0346 7.64358L13.4379 9.86738H11.3106L10.7139 7.64358C10.6636 7.45608 10.4707 7.34485 10.2832 7.39515C10.0957 7.44544 9.9844 7.63829 10.0347 7.82583L10.5826 9.86743H8.81482C8.62066 9.86743 8.46326 10.0248 8.46326 10.219C8.46326 10.4131 8.62066 10.5706 8.81482 10.5706H16.2149C17.1085 10.5706 17.9441 10.9692 18.5074 11.6643C18.8823 12.1269 19.1026 12.6859 19.1521 13.2723C19.1512 13.2601 19.1502 13.2481 19.1492 13.236C19.1466 13.2056 19.1702 13.1796 19.2006 13.1796L19.8501 13.1796Z" fill="#95BCF7"/>
<path d="M16.8449 13.0168C16.6805 12.8524 16.4995 12.7105 16.3057 12.5927L16.9151 11.9834C17.0524 11.8461 17.0524 11.6235 16.9151 11.4863C16.7778 11.349 16.5551 11.349 16.4179 11.4863L15.6136 12.2905C15.3616 12.2188 15.0981 12.1817 14.8289 12.1817H8.65085C7.65677 12.1817 6.72218 11.7946 6.01929 11.0917L4.89822 9.97065C4.76093 9.83335 4.53832 9.83335 4.40107 9.97065C4.26377 10.1079 4.26377 10.3306 4.40107 10.4678L5.52213 11.5889C6.35787 12.4246 7.46899 12.8848 8.6509 12.8848H14.8289C15.0808 12.8848 15.3261 12.9279 15.5563 13.0105C15.5747 13.0193 15.5937 13.0264 15.6131 13.0318C15.8852 13.1384 16.135 13.3011 16.3479 13.5139L16.4709 13.637C16.5395 13.7056 16.6295 13.74 16.7195 13.74C16.8094 13.74 16.8994 13.7056 16.9681 13.637C17.1054 13.4997 17.1054 13.2771 16.9681 13.1398L16.8449 13.0168Z" fill="#95BCF7"/>
<path d="M19.1333 13.9519C19.1232 14.0241 19.1106 14.0964 19.0953 14.1686C19.0924 14.1824 19.0904 14.1962 19.0891 14.2099C19.1071 14.1251 19.1219 14.039 19.1333 13.9519Z" fill="#95BCF7"/>
<path d="M5.75165 8.15302C5.61436 8.29032 5.61436 8.51293 5.75165 8.65018L7.08492 9.98344C7.15355 10.0521 7.24354 10.0864 7.3335 10.0864C7.42345 10.0864 7.51345 10.0521 7.58208 9.98344C7.71937 9.84615 7.71937 9.62354 7.58208 9.48629L6.24881 8.15302C6.11156 8.01572 5.88895 8.01572 5.75165 8.15302Z" fill="#95BCF7"/>
<path d="M20.4625 11.5992C20.1368 10.8189 19.6373 10.1703 19.0243 9.66643C18.8796 9.54756 18.7948 9.37773 18.7856 9.18821C18.7762 8.99574 18.849 8.80716 18.9851 8.67095L19.6141 8.04202C19.7514 7.90473 19.7514 7.68212 19.6141 7.54487C19.4768 7.40757 19.2542 7.40757 19.1169 7.54487L18.488 8.17379C18.2117 8.45002 18.0642 8.83224 18.0833 9.22252C18.1021 9.60704 18.2823 9.96681 18.5778 10.2097C19.1215 10.6565 19.5421 11.2196 19.8136 11.8701C19.87 12.005 20.0006 12.0864 20.1382 12.0864C20.1833 12.0864 20.2292 12.0776 20.2735 12.0591C20.4527 11.9843 20.5373 11.7784 20.4625 11.5992Z" fill="#95BCF7"/>
<path d="M2.4184 14.8193C2.28111 14.9566 2.28111 15.1792 2.4184 15.3165C2.5557 15.4538 2.77831 15.4538 2.91556 15.3165L3.31362 14.9184C3.85029 14.3817 4.56387 14.0862 5.32282 14.0862H6.00017C6.19432 14.0862 6.35173 13.9288 6.35173 13.7346C6.35173 13.5405 6.19432 13.3831 6.00017 13.3831H5.32282C4.37604 13.3831 3.48589 13.7518 2.81642 14.4212L2.4184 14.8193Z" fill="#95BCF7"/>
<path d="M18.2681 6.05018C18.3368 6.1188 18.4268 6.15316 18.5167 6.15316C18.6067 6.15316 18.6967 6.11885 18.7653 6.05018L20.7033 4.11213C20.4279 4.08344 20.1433 4.17504 19.9335 4.38475L19.6976 4.62068C19.9116 4.40655 19.9991 4.12174 19.971 3.8501L18.2681 5.55302C18.1308 5.69032 18.1308 5.91293 18.2681 6.05018Z" fill="#95BCF7"/>
<path d="M23.9999 9.37622L21.2639 9.92339C21.0735 9.96146 20.95 10.1467 20.9881 10.3371C21.0215 10.5042 21.1683 10.6198 21.3325 10.6198C21.3553 10.6198 21.3785 10.6175 21.4018 10.6129L23.9246 10.1083C23.973 9.86972 23.9987 9.62475 23.9999 9.37622Z" fill="#95BCF7"/>
<path d="M21.5815 7.00493C21.7188 6.86763 21.7188 6.64503 21.5815 6.50778C21.4441 6.37043 21.2216 6.37048 21.0843 6.50778L20.7109 6.88128C20.4043 7.18784 20.3185 7.65593 20.4973 8.04612C20.5592 8.18121 20.6178 8.32067 20.6708 8.45881C20.6969 8.5279 20.72 8.59793 20.7402 8.66848L20.2124 8.77404C20.022 8.8121 19.8985 8.99735 19.9366 9.18771C19.97 9.35482 20.1168 9.47042 20.281 9.47042C20.3038 9.47042 20.327 9.46817 20.3503 9.46353L21.2288 9.28784H21.2289L22.7352 8.98657C22.9256 8.94851 23.049 8.76326 23.011 8.5729C22.9729 8.38249 22.7877 8.25907 22.5973 8.29709L21.4314 8.53024C21.4025 8.4221 21.368 8.31481 21.3281 8.20882C21.2691 8.05503 21.2046 7.9017 21.1365 7.75315C21.0796 7.62879 21.1083 7.47823 21.2081 7.37843L21.5815 7.00493Z" fill="#95BCF7"/>
<path d="M12.3516 2.21191C12.1371 2.38582 12 2.65146 12 2.94912C12 2.65146 11.8629 2.38587 11.6484 2.21191V4.40173C11.6484 4.59588 11.8058 4.75329 12 4.75329C12.1942 4.75329 12.3516 4.59588 12.3516 4.40173V2.21191Z" fill="#95BCF7"/>
<path d="M12 5.38354C11.8058 5.38354 11.6484 5.54095 11.6484 5.73511V7.73503C11.6484 7.92919 11.8058 8.08659 12 8.08659C12.1942 8.08659 12.3516 7.92919 12.3516 7.73503V5.73511C12.3516 5.54095 12.1942 5.38354 12 5.38354Z" fill="#95BCF7"/>
<path d="M14.9904 3.49038C15.025 3.29937 14.8983 3.11637 14.7073 3.08163C14.5161 3.04699 14.3332 3.17365 14.2985 3.36471L14.1891 3.96706C14.0554 4.70252 14.4936 5.41277 15.2083 5.61916C15.4658 5.69356 15.718 5.78871 15.9612 5.90299L15.7171 6.42199C15.6344 6.59773 15.7098 6.80712 15.8855 6.88976C16.0616 6.97259 16.2708 6.8966 16.3533 6.72129C16.6401 6.11149 17.3032 4.70177 17.6071 4.05579C17.6897 3.88006 17.6143 3.67066 17.4386 3.58802C17.2629 3.50538 17.0534 3.58081 16.9708 3.75649L16.2604 5.26676C15.9837 5.13663 15.6966 5.02831 15.4034 4.94365C15.0366 4.83776 14.812 4.47195 14.8809 4.09277L14.9904 3.49038Z" fill="#95BCF7"/>
<path d="M21.6792 6.69596C21.6698 6.64144 21.6474 6.58871 21.6121 6.54272C21.6349 6.59354 21.6572 6.64463 21.6792 6.69596Z" fill="#7CACF3"/>
<path d="M20.1396 4.22821C20.2089 4.30818 20.2769 4.38941 20.3434 4.47186L20.7032 4.11205C20.5103 4.09199 20.3128 4.13094 20.1396 4.22821Z" fill="#7CACF3"/>
<path d="M19.9718 4.03961C19.9778 3.97643 19.9775 3.91291 19.971 3.8501L19.8801 3.94094C19.9109 3.97361 19.9415 4.00647 19.9718 4.03961Z" fill="#7CACF3"/>
<path d="M23.0109 8.57297C22.9728 8.38257 22.7876 8.25914 22.5972 8.29716L22.0683 8.40296C22.0677 8.65135 22.0425 8.89622 21.9946 9.13472L22.7351 8.98664C22.9255 8.94853 23.0489 8.76333 23.0109 8.57297Z" fill="#7CACF3"/>
<path d="M23.9999 9.37622L21.7893 9.81835C21.6741 10.1023 21.5255 10.3713 21.3475 10.6194C21.3655 10.6187 21.3837 10.6165 21.4019 10.6129L23.9247 10.1083C23.973 9.86972 23.9988 9.62475 23.9999 9.37622Z" fill="#7CACF3"/>
<path d="M19.1333 13.9521C19.1232 14.0244 19.1106 14.0966 19.0953 14.1688C19.0924 14.1826 19.0904 14.1964 19.0891 14.2101C19.1071 14.1253 19.1219 14.0392 19.1333 13.9521Z" fill="#7CACF3"/>
<path d="M20.4626 11.5993C20.4525 11.5751 20.4422 11.5511 20.4318 11.5271C20.2399 11.6619 20.0343 11.7797 19.817 11.8779C19.875 12.0082 20.0033 12.0864 20.1383 12.0864C20.1834 12.0864 20.2293 12.0776 20.2735 12.0592C20.4527 11.9844 20.5373 11.7785 20.4626 11.5993Z" fill="#7CACF3"/>
<path d="M6.06191 16.3184C6.23263 16.1477 6.41502 15.9929 6.60726 15.8547H5.5312L4.56543 16.8205H5.55979L6.06191 16.3184Z" fill="#7CACF3"/>
<path d="M19.8501 13.1798C19.8116 12.7678 19.7046 12.3668 19.5327 11.9927C19.3106 12.072 19.0779 12.1314 18.8364 12.1687C19.0128 12.5116 19.1196 12.8861 19.1521 13.2726C19.1512 13.2604 19.1503 13.2483 19.1492 13.2363C19.1466 13.2059 19.1702 13.1798 19.2006 13.1798H19.8501V13.1798Z" fill="#7CACF3"/>
</svg>
