<svg width="55" height="132" viewBox="0 0 55 132" fill="none" xmlns="http://www.w3.org/2000/svg">
<path opacity="0.2" d="M3.09438 48.1261C1.38726 48.1261 0 46.7379 0 45.0318C0 43.3256 1.38826 41.9354 3.09438 41.9354C4.80149 41.9354 6.1907 43.3256 6.1907 45.0318C6.1907 46.7379 4.80149 48.1261 3.09438 48.1261ZM30.5408 45.0318C30.5408 43.3256 29.1505 41.9354 27.4444 41.9354C25.7383 41.9354 24.3501 43.3256 24.3501 45.0318C24.3501 46.7379 25.7383 48.1261 27.4444 48.1261C29.1505 48.1261 30.5408 46.7379 30.5408 45.0318ZM30.5408 31.051C30.5408 29.3449 29.1505 27.9566 27.4444 27.9566C25.7383 27.9566 24.3501 29.3449 24.3501 31.051C24.3501 32.7601 25.7383 34.1483 27.4444 34.1483C29.1505 34.1483 30.5408 32.7601 30.5408 31.051ZM18.3647 45.0318C18.3647 43.3256 16.9755 41.9354 15.2694 41.9354C13.5633 41.9354 12.1751 43.3256 12.1751 45.0318C12.1751 46.7379 13.5633 48.1261 15.2694 48.1261C16.9755 48.1261 18.3647 46.7379 18.3647 45.0318ZM54.8898 31.051C54.8898 29.3449 53.5007 27.9566 51.7955 27.9566C50.0884 27.9566 48.7002 29.3449 48.7002 31.051C48.7002 32.7601 50.0894 34.1483 51.7955 34.1483C53.5016 34.1483 54.8898 32.7601 54.8898 31.051ZM42.7158 31.051C42.7158 29.3449 41.3266 27.9566 39.6215 27.9566C37.9144 27.9566 36.5251 29.3449 36.5251 31.051C36.5251 32.7601 37.9144 34.1483 39.6215 34.1483C41.3266 34.1483 42.7158 32.7601 42.7158 31.051ZM42.7158 45.0318C42.7158 43.3256 41.3266 41.9354 39.6215 41.9354C37.9144 41.9354 36.5251 43.3256 36.5251 45.0318C36.5251 46.7379 37.9144 48.1261 39.6215 48.1261C41.3266 48.1261 42.7158 46.7379 42.7158 45.0318ZM18.3647 59.0116C18.3647 57.3035 16.9755 55.9153 15.2694 55.9153C13.5633 55.9153 12.1751 57.3035 12.1751 59.0116C12.1751 60.7167 13.5633 62.1049 15.2694 62.1049C16.9755 62.1059 18.3647 60.7167 18.3647 59.0116ZM30.5408 59.0116C30.5408 57.3035 29.1505 55.9153 27.4444 55.9153C25.7383 55.9153 24.3501 57.3035 24.3501 59.0116C24.3501 60.7167 25.7383 62.1049 27.4444 62.1049C29.1505 62.1049 30.5408 60.7167 30.5408 59.0116ZM18.3647 31.051C18.3647 29.3449 16.9755 27.9566 15.2694 27.9566C13.5633 27.9566 12.1751 29.3449 12.1751 31.051C12.1751 32.7601 13.5633 34.1483 15.2694 34.1483C16.9755 34.1483 18.3647 32.7601 18.3647 31.051ZM54.8898 45.0318C54.8898 43.3256 53.5007 41.9354 51.7955 41.9354C50.0884 41.9354 48.7002 43.3256 48.7002 45.0318C48.7002 46.7379 50.0894 48.1261 51.7955 48.1261C53.5016 48.1261 54.8898 46.7379 54.8898 45.0318ZM6.1907 59.0116C6.1907 57.3035 4.80049 55.9153 3.09438 55.9153C1.38726 55.9153 0 57.3035 0 59.0116C0 60.7167 1.38826 62.1049 3.09438 62.1049C4.80149 62.1059 6.1907 60.7167 6.1907 59.0116ZM30.5408 3.09535C30.5408 1.38923 29.1505 0 27.4444 0C25.7383 0 24.3501 1.38923 24.3501 3.09535C24.3501 4.80246 25.7383 6.19067 27.4444 6.19067C29.1505 6.19067 30.5408 4.80246 30.5408 3.09535ZM6.1907 31.051C6.1907 29.3449 4.80049 27.9566 3.09438 27.9566C1.38726 27.9566 0 29.3449 0 31.051C0 32.7601 1.38826 34.1483 3.09438 34.1483C4.80149 34.1483 6.1907 32.7601 6.1907 31.051ZM42.7158 3.09535C42.7158 1.38923 41.3266 0 39.6215 0C37.9144 0 36.5251 1.38923 36.5251 3.09535C36.5251 4.80246 37.9144 6.19067 39.6215 6.19067C41.3266 6.19067 42.7158 4.80246 42.7158 3.09535ZM18.3647 3.09535C18.3647 1.38923 16.9755 0 15.2694 0C13.5633 0 12.1751 1.38923 12.1751 3.09535C12.1751 4.80246 13.5633 6.19067 15.2694 6.19067C16.9755 6.19067 18.3647 4.80246 18.3647 3.09535ZM54.8898 3.09535C54.8898 1.38923 53.5007 0 51.7955 0C50.0884 0 48.7002 1.38923 48.7002 3.09535C48.7002 4.80246 50.0894 6.19067 51.7955 6.19067C53.5016 6.19067 54.8898 4.80246 54.8898 3.09535ZM6.1907 3.09535C6.1907 1.38923 4.80049 0 3.09438 0C1.38726 0 0 1.38923 0 3.09535C0 4.80246 1.38826 6.19067 3.09438 6.19067C4.80149 6.19067 6.1907 4.80246 6.1907 3.09535ZM48.7002 128.904C48.7002 130.613 50.0894 132 51.7955 132C53.5016 132 54.8898 130.612 54.8898 128.904C54.8898 127.199 53.5007 125.808 51.7955 125.808C50.0884 125.808 48.7002 127.199 48.7002 128.904ZM42.7158 59.0116C42.7158 57.3035 41.3266 55.9153 39.6215 55.9153C37.9144 55.9153 36.5251 57.3035 36.5251 59.0116C36.5251 60.7167 37.9144 62.1049 39.6215 62.1049C41.3266 62.1059 42.7158 60.7167 42.7158 59.0116ZM6.1907 17.0741C6.1907 15.367 4.80049 13.9778 3.09438 13.9778C1.38726 13.9778 0 15.367 0 17.0741C0 18.7793 1.38826 20.1695 3.09438 20.1695C4.80149 20.1695 6.1907 18.7803 6.1907 17.0741ZM42.7158 17.0741C42.7158 15.367 41.3266 13.9778 39.6215 13.9778C37.9144 13.9778 36.5251 15.367 36.5251 17.0741C36.5251 18.7793 37.9144 20.1695 39.6215 20.1695C41.3266 20.1695 42.7158 18.7803 42.7158 17.0741ZM54.8898 17.0741C54.8898 15.367 53.5007 13.9778 51.7955 13.9778C50.0884 13.9778 48.7002 15.367 48.7002 17.0741C48.7002 18.7793 50.0894 20.1695 51.7955 20.1695C53.5016 20.1695 54.8898 18.7803 54.8898 17.0741ZM30.5408 17.0741C30.5408 15.367 29.1505 13.9778 27.4444 13.9778C25.7383 13.9778 24.3501 15.367 24.3501 17.0741C24.3501 18.7793 25.7383 20.1695 27.4444 20.1695C29.1505 20.1695 30.5408 18.7803 30.5408 17.0741ZM18.3647 17.0741C18.3647 15.367 16.9755 13.9778 15.2694 13.9778C13.5633 13.9778 12.1751 15.367 12.1751 17.0741C12.1751 18.7793 13.5633 20.1695 15.2694 20.1695C16.9755 20.1695 18.3647 18.7803 18.3647 17.0741ZM6.1907 128.904C6.1907 127.199 4.80049 125.808 3.09438 125.808C1.38726 125.808 0 127.199 0 128.904C0 130.613 1.38826 132 3.09438 132C4.80149 132 6.1907 130.613 6.1907 128.904ZM6.1907 114.927C6.1907 113.22 4.80049 111.831 3.09438 111.831C1.38726 111.831 0 113.221 0 114.927C0 116.633 1.38826 118.021 3.09438 118.021C4.80149 118.021 6.1907 116.633 6.1907 114.927ZM54.8898 100.947C54.8898 99.2399 53.5007 97.8507 51.7955 97.8507C50.0884 97.8507 48.7002 99.2399 48.7002 100.947C48.7002 102.654 50.0894 104.041 51.7955 104.041C53.5016 104.042 54.8898 102.654 54.8898 100.947ZM18.3647 114.927C18.3647 113.22 16.9755 111.831 15.2694 111.831C13.5633 111.831 12.1751 113.221 12.1751 114.927C12.1751 116.633 13.5633 118.021 15.2694 118.021C16.9755 118.021 18.3647 116.633 18.3647 114.927ZM18.3647 100.947C18.3647 99.2399 16.9755 97.8507 15.2694 97.8507C13.5633 97.8507 12.1751 99.2399 12.1751 100.947C12.1751 102.654 13.5633 104.041 15.2694 104.041C16.9755 104.042 18.3647 102.654 18.3647 100.947ZM54.8898 59.0116C54.8898 57.3035 53.5007 55.9153 51.7955 55.9153C50.0884 55.9153 48.7002 57.3035 48.7002 59.0116C48.7002 60.7167 50.0894 62.1049 51.7955 62.1049C53.5016 62.1059 54.8898 60.7167 54.8898 59.0116ZM30.5408 114.927C30.5408 113.22 29.1505 111.831 27.4444 111.831C25.7383 111.831 24.3501 113.221 24.3501 114.927C24.3501 116.633 25.7383 118.021 27.4444 118.021C29.1505 118.021 30.5408 116.633 30.5408 114.927ZM30.5408 100.947C30.5408 99.2399 29.1505 97.8507 27.4444 97.8507C25.7383 97.8507 24.3501 99.2399 24.3501 100.947C24.3501 102.654 25.7383 104.041 27.4444 104.041C29.1505 104.041 30.5408 102.654 30.5408 100.947ZM42.7158 128.904C42.7158 127.199 41.3266 125.808 39.6215 125.808C37.9144 125.808 36.5251 127.199 36.5251 128.904C36.5251 130.613 37.9144 132 39.6215 132C41.3266 132 42.7158 130.613 42.7158 128.904ZM30.5408 128.904C30.5408 127.199 29.1505 125.808 27.4444 125.808C25.7383 125.808 24.3501 127.199 24.3501 128.904C24.3501 130.613 25.7383 132 27.4444 132C29.1505 132 30.5408 130.613 30.5408 128.904ZM54.8898 114.927C54.8898 113.22 53.5007 111.831 51.7955 111.831C50.0884 111.831 48.7002 113.221 48.7002 114.927C48.7002 116.633 50.0894 118.021 51.7955 118.021C53.5016 118.021 54.8898 116.633 54.8898 114.927ZM18.3647 128.904C18.3647 127.199 16.9755 125.808 15.2694 125.808C13.5633 125.808 12.1751 127.199 12.1751 128.904C12.1751 130.613 13.5633 132 15.2694 132C16.9755 132 18.3647 130.613 18.3647 128.904ZM42.7158 114.927C42.7158 113.22 41.3266 111.831 39.6215 111.831C37.9144 111.831 36.5251 113.221 36.5251 114.927C36.5251 116.633 37.9144 118.021 39.6215 118.021C41.3266 118.021 42.7158 116.633 42.7158 114.927ZM42.7158 100.947C42.7158 99.2399 41.3266 97.8507 39.6215 97.8507C37.9144 97.8507 36.5251 99.2399 36.5251 100.947C36.5251 102.654 37.9144 104.041 39.6215 104.041C41.3266 104.042 42.7158 102.654 42.7158 100.947ZM54.8898 72.9894C54.8898 71.2833 53.5007 69.8951 51.7955 69.8951C50.0884 69.8951 48.7002 71.2843 48.7002 72.9894C48.7002 74.6965 50.0894 76.0837 51.7955 76.0837C53.5016 76.0837 54.8898 74.6955 54.8898 72.9894ZM42.7158 72.9894C42.7158 71.2833 41.3266 69.8951 39.6215 69.8951C37.9144 69.8951 36.5251 71.2843 36.5251 72.9894C36.5251 74.6965 37.9144 76.0837 39.6215 76.0837C41.3266 76.0837 42.7158 74.6955 42.7158 72.9894ZM30.5408 72.9894C30.5408 71.2833 29.1505 69.8951 27.4444 69.8951C25.7383 69.8951 24.3501 71.2843 24.3501 72.9894C24.3501 74.6965 25.7383 76.0837 27.4444 76.0837C29.1505 76.0837 30.5408 74.6955 30.5408 72.9894ZM6.1907 100.947C6.1907 99.2399 4.80049 97.8507 3.09438 97.8507C1.38726 97.8507 0 99.2399 0 100.947C0 102.654 1.38826 104.041 3.09438 104.041C4.80149 104.042 6.1907 102.654 6.1907 100.947ZM18.3647 72.9894C18.3647 71.2833 16.9755 69.8951 15.2694 69.8951C13.5633 69.8951 12.1751 71.2843 12.1751 72.9894C12.1751 74.6965 13.5633 76.0837 15.2694 76.0837C16.9755 76.0837 18.3647 74.6955 18.3647 72.9894ZM6.1907 72.9894C6.1907 71.2833 4.80049 69.8951 3.09438 69.8951C1.38726 69.8951 0 71.2843 0 72.9894C0 74.6965 1.38826 76.0837 3.09438 76.0837C4.80149 76.0837 6.1907 74.6955 6.1907 72.9894ZM42.7158 86.9682C42.7158 85.2611 41.3266 83.8729 39.6215 83.8729C37.9144 83.8729 36.5251 85.2611 36.5251 86.9682C36.5251 88.6753 37.9144 90.0626 39.6215 90.0626C41.3266 90.0626 42.7158 88.6753 42.7158 86.9682ZM54.8898 86.9682C54.8898 85.2611 53.5007 83.8729 51.7955 83.8729C50.0884 83.8729 48.7002 85.2611 48.7002 86.9682C48.7002 88.6753 50.0894 90.0626 51.7955 90.0626C53.5016 90.0626 54.8898 88.6753 54.8898 86.9682ZM18.3647 86.9682C18.3647 85.2611 16.9755 83.8729 15.2694 83.8729C13.5633 83.8729 12.1751 85.2611 12.1751 86.9682C12.1751 88.6753 13.5633 90.0626 15.2694 90.0626C16.9755 90.0626 18.3647 88.6753 18.3647 86.9682ZM6.1907 86.9682C6.1907 85.2611 4.80049 83.8729 3.09438 83.8729C1.38726 83.8729 0 85.2611 0 86.9682C0 88.6753 1.38826 90.0626 3.09438 90.0626C4.80149 90.0626 6.1907 88.6753 6.1907 86.9682ZM30.5408 86.9682C30.5408 85.2611 29.1505 83.8729 27.4444 83.8729C25.7383 83.8729 24.3501 85.2611 24.3501 86.9682C24.3501 88.6753 25.7383 90.0626 27.4444 90.0626C29.1505 90.0626 30.5408 88.6753 30.5408 86.9682Z" fill="white"/>
</svg>
