<svg width="24" height="24" viewBox="0 0 24 24" fill="none" xmlns="http://www.w3.org/2000/svg">
<g clip-path="url(#clip0_2011_684)">
<path d="M10.3005 15.9282L11.9905 17.9663C12.7402 18.8705 13.1505 20.0081 13.1505 21.1827V23.2499C13.1505 23.6641 13.4863 23.9999 13.9005 23.9999H14.5143L14.8631 23.565L15.2174 23.9999H16.0753L16.4336 23.6639L16.7784 23.9999H17.1967C17.6109 23.9999 17.9467 23.6641 17.9467 23.2499V15.9282H10.3005Z" fill="#64A2FE"/>
<path d="M17.9467 15.9282H10.3005L11.9905 17.9663C12.0679 18.0596 12.1406 18.156 12.2107 18.254C12.3955 18.2358 12.5787 18.2081 12.7601 18.1706C13.9732 19.025 15.4262 19.4891 16.9201 19.4891C17.2684 19.4891 17.6111 19.4643 17.9467 19.4164V15.9282Z" fill="#4790FD"/>
<path d="M16.4268 16.7754C16.2327 16.7754 16.0753 16.9327 16.0753 17.127V19.5372C16.0753 19.9376 15.9227 20.3174 15.6456 20.6065L15.1395 21.1346C14.7363 21.5553 14.5143 22.1078 14.5143 22.6904V24H15.2175V22.6904C15.2175 22.29 15.37 21.9102 15.6471 21.621L16.0753 21.1743V24H16.7785V17.127C16.7784 16.9327 16.621 16.7754 16.4268 16.7754Z" fill="#60B7FF"/>
<path d="M14.7626 17.8172L15.5648 17.9603L18.4067 17.7088L21.5919 14.8983L23.0261 10.9652L22.8941 7.95605L21.4599 5.71237L20.3072 4.22541L19.9421 3.95095C19.9306 3.94894 19.9193 3.9465 19.9077 3.94462C18.948 2.63475 17.4667 1.73184 15.7694 1.5412C15.315 0.808734 14.5039 0.320719 13.5785 0.320719C13.1543 0.320719 12.7545 0.423844 12.4015 0.605438C11.7906 0.222328 11.0685 0 10.2942 0C9.05391 0 7.94662 0.568594 7.21809 1.45908C6.843 1.3185 6.43702 1.2412 6.01289 1.2412C4.1153 1.2412 2.57695 2.7795 2.57695 4.67714C1.15373 4.67709 0 5.83083 0 7.25405C0 7.91419 0.248484 8.51606 0.656719 8.97202C0.248484 9.42797 0 10.0298 0 10.69C0 12.1132 1.15373 13.2669 2.57695 13.2669C2.87737 13.2669 3.16552 13.215 3.43359 13.1205C3.56981 14.8934 5.05041 16.2899 6.85823 16.2899C7.5615 16.2899 8.21513 16.0782 8.75967 15.7156C9.48619 16.5117 10.532 17.0112 11.6947 17.0112C12.1651 17.0112 12.6162 16.9289 13.035 16.7788C13.5435 17.2164 14.1267 17.5697 14.7626 17.8172Z" fill="#99C1FE"/>
<path d="M22.0724 6.4248C22.042 5.18219 21.1326 4.1584 19.9421 3.95093C20.0732 4.21676 20.1632 4.50649 20.2035 4.81193C20.2283 5.00055 20.3322 5.16926 20.4877 5.27894C21.586 6.05379 22.3035 7.33226 22.3035 8.77854C22.3035 9.85929 21.9024 10.846 21.2415 11.5992C21.144 11.7103 21.0828 11.8481 21.0692 11.9954C20.7693 15.2326 18.0677 17.773 14.7626 17.8172C15.1795 17.9794 15.619 18.0962 16.0753 18.1611V18.161L16.4468 17.8832L16.7784 18.2191C16.8255 18.2202 16.8727 18.2208 16.9201 18.2208C20.0964 18.2208 22.6917 15.7362 22.8703 12.6046C23.5689 11.8886 24 10.9104 24 9.83097C24 8.38497 23.2272 7.11968 22.0724 6.4248Z" fill="#80B2FD"/>
<path d="M17.5947 13.7879L18.1022 13.5465C18.8418 13.1948 19.3196 12.4383 19.3196 11.6194V8.79208C19.3196 8.69885 19.2831 8.61438 19.2239 8.55147C19.2768 8.41183 19.2363 8.24833 19.1128 8.15088L18.6187 7.76116C18.1465 7.39483 17.5574 7.1921 16.9596 7.19046L14.2536 7.18502C14.5414 6.92529 14.7758 6.60204 14.9341 6.22989L15.6062 4.6495C15.6822 4.47082 15.5991 4.26433 15.4204 4.1883C15.2417 4.11232 15.0353 4.19547 14.9592 4.37411L14.2871 5.95479C13.9699 6.70014 13.2415 7.18179 12.4313 7.18179H11.1833C11.1878 7.12338 11.1779 7.0631 11.1514 7.00629L10.6358 5.90472C10.2022 4.97852 9.26135 4.38007 8.23868 4.38007H6.26721C6.07306 4.38007 5.91565 4.53743 5.91565 4.73163C5.91565 4.92583 6.07306 5.08319 6.26721 5.08319H8.23868C8.98967 5.08319 9.6806 5.52269 9.99893 6.20285L10.5145 7.30441C10.5476 7.37515 10.6016 7.42891 10.6654 7.4635C10.6608 7.4861 10.6584 7.50944 10.6584 7.53339C10.6584 7.57905 10.6674 7.62255 10.6832 7.66254C10.6052 7.69924 10.5403 7.76425 10.5061 7.85069L9.84987 9.50679C9.55442 10.2526 8.84515 10.7344 8.04298 10.7344H6.26721C6.07306 10.7344 5.91565 10.8918 5.91565 11.086C5.91565 11.2802 6.07306 11.4376 6.26721 11.4376H8.04298C9.13535 11.4376 10.1012 10.7814 10.5035 9.76577L11.1597 8.10958C11.1893 8.035 11.1912 7.95649 11.1709 7.88482H12.6406H12.6414C13.2166 7.88482 13.6952 8.33454 13.7309 8.90871L13.925 12.022C13.9366 12.2083 14.0914 12.3516 14.2755 12.3516C14.2829 12.3516 14.2903 12.3514 14.2977 12.3509C14.4915 12.3388 14.6388 12.172 14.6268 11.9782L14.4327 8.86497C14.4098 8.49761 14.2763 8.16157 14.0665 7.88768L16.9579 7.89349C17.4009 7.89471 17.8377 8.04499 18.1855 8.31485L18.638 8.6718C18.6243 8.70935 18.6165 8.74971 18.6165 8.79199V11.6193C18.6165 12.1684 18.2961 12.6756 17.8002 12.9115L17.2927 13.1528C16.5532 13.5046 16.0753 14.261 16.0753 15.0799V15.8861C16.06 15.8723 16.0451 15.8581 16.0294 15.8447L15.1554 15.0992C14.8362 14.8269 14.6531 14.4302 14.6531 14.0106V12.8393C14.6531 12.6451 14.4957 12.4878 14.3016 12.4878C14.1074 12.4878 13.95 12.6451 13.95 12.8393V14.0106C13.95 14.6363 14.223 15.228 14.699 15.6341L15.5731 16.3796C15.8922 16.6519 16.0753 17.0487 16.0753 17.4682V18.1611C16.3057 18.1938 16.5403 18.2136 16.7784 18.2192V18.2002V15.0799C16.7784 14.5309 17.0988 14.0237 17.5947 13.7879Z" fill="#4790FD"/>
<path d="M6.26721 5.60071C6.74726 5.60071 7.13642 5.21156 7.13642 4.73151C7.13642 4.25146 6.74726 3.8623 6.26721 3.8623C5.78717 3.8623 5.39801 4.25146 5.39801 4.73151C5.39801 5.21156 5.78717 5.60071 6.26721 5.60071Z" fill="#FFE177"/>
<path d="M11.0099 8.40271C11.4899 8.40271 11.8791 8.01356 11.8791 7.53351C11.8791 7.05346 11.4899 6.66431 11.0099 6.66431C10.5298 6.66431 10.1407 7.05346 10.1407 7.53351C10.1407 8.01356 10.5298 8.40271 11.0099 8.40271Z" fill="#FFE177"/>
<path d="M6.26721 11.9552C6.74726 11.9552 7.13642 11.566 7.13642 11.086C7.13642 10.606 6.74726 10.2168 6.26721 10.2168C5.78717 10.2168 5.39801 10.606 5.39801 11.086C5.39801 11.566 5.78717 11.9552 6.26721 11.9552Z" fill="#FFE177"/>
<path d="M14.3016 13.285C14.7816 13.285 15.1708 12.8959 15.1708 12.4158C15.1708 11.9358 14.7816 11.5466 14.3016 11.5466C13.8215 11.5466 13.4324 11.9358 13.4324 12.4158C13.4324 12.8959 13.8215 13.285 14.3016 13.285Z" fill="#FFE177"/>
<path d="M15.2827 5.38098C15.7628 5.38098 16.1519 4.99183 16.1519 4.51178C16.1519 4.03173 15.7628 3.64258 15.2827 3.64258C14.8027 3.64258 14.4135 4.03173 14.4135 4.51178C14.4135 4.99183 14.8027 5.38098 15.2827 5.38098Z" fill="#FFE177"/>
<path d="M18.968 9.44641C19.4481 9.44641 19.8372 9.05726 19.8372 8.57721C19.8372 8.09716 19.4481 7.70801 18.968 7.70801C18.488 7.70801 18.0988 8.09716 18.0988 8.57721C18.0988 9.05726 18.488 9.44641 18.968 9.44641Z" fill="#FFE177"/>
</g>
<defs>
<clipPath id="clip0_2011_684">
<rect width="24" height="24" fill="white"/>
</clipPath>
</defs>
</svg>
