<svg width="24" height="24" viewBox="0 0 24 24" fill="none" xmlns="http://www.w3.org/2000/svg">
<g clip-path="url(#clip0_2011_727)">
<path d="M20.7863 14.4832C21.0745 14.023 21.2342 13.4852 21.2342 12.9314C21.2342 12.2296 20.9817 11.5513 20.5234 11.0211C20.1947 10.6411 19.7756 10.3542 19.31 10.185C19.0987 9.03201 18.2083 8.11359 17.0702 7.86084C16.7799 6.55363 15.6113 5.57324 14.218 5.57324C13.3331 5.57324 12.537 5.9721 12 6.59891L10.499 15.1332L12 22.4342C12.7699 23.5058 14.099 24.1093 15.4088 23.9834C16.8853 23.841 18.1744 22.8022 18.6215 21.3854C20.6989 21.4625 22.5116 19.718 22.5116 17.6385C22.5116 16.4072 21.8241 15.1507 20.7863 14.4832Z" fill="#66A3FF"/>
<path d="M11.9997 6.59949C11.4627 5.97249 10.6664 5.57349 9.78135 5.57349C8.38804 5.57349 7.21945 6.55388 6.9292 7.86108C5.79107 8.11383 4.90073 9.03225 4.68941 10.1852C4.22371 10.3545 3.80465 10.6413 3.47596 11.0214C3.01762 11.5515 2.76515 12.2298 2.76515 12.9316C2.76515 13.4854 2.9248 14.0232 3.21299 14.4834C2.21577 15.1251 1.54795 16.2767 1.49216 17.461C1.39293 19.6075 3.22485 21.4655 5.37777 21.3856C5.8183 22.7814 7.09841 23.8239 8.55013 23.9795C9.88157 24.1219 11.2169 23.5239 11.9996 22.434C11.9997 22.4342 11.9999 22.4343 11.9999 22.4345V6.59916C11.9999 6.59925 11.9998 6.59935 11.9997 6.59949Z" fill="#99C2FF"/>
<path d="M14.2183 6.97949C15.0538 6.97949 15.7335 7.65923 15.7335 8.49468V9.1978H16.4366C17.2721 9.1978 17.9518 9.87754 17.9518 10.713V11.3421L18.5475 11.4342C19.2776 11.547 19.8282 12.1907 19.8282 12.9313C19.8282 13.316 19.6871 13.6744 19.4342 13.9506C19.2161 13.9109 18.9919 13.8891 18.7626 13.8891C18.2913 13.8891 17.8295 13.9772 17.3974 14.1462C17.0171 13.6228 16.377 13.2573 15.7494 13.1427L15.7493 11.5226L14.3431 11.5227L14.3432 14.4888H15.0463C15.5736 14.4888 15.9429 14.6129 16.1752 14.8681C16.3871 15.1009 16.4956 15.4022 16.4809 15.7166C16.4662 16.0309 16.3298 16.3207 16.0971 16.5326L17.0436 17.5725C17.5932 17.0723 17.9355 16.2157 17.8807 15.4673C18.1588 15.3543 18.4574 15.2954 18.7626 15.2954C19.9248 15.2954 20.9316 16.1691 21.0855 17.3366C21.26 18.6852 20.1627 19.9678 18.7853 19.9811C18.7477 19.4621 18.6026 18.9532 18.3593 18.4952L17.1173 19.1547C17.2979 19.4946 17.3894 19.8637 17.3894 20.2518C17.3894 21.389 16.5319 22.3889 15.4143 22.5658C14.0238 22.7867 12.7031 21.6842 12.7031 20.2516V8.48015C12.7109 7.65243 13.39 6.97949 14.2183 6.97949Z" fill="#3385FF"/>
<path d="M4.17176 12.9313C4.17176 12.1907 4.72235 11.547 5.45248 11.4342L6.04817 11.3421V10.713C6.04817 9.87754 6.72785 9.1978 7.56335 9.1978H8.26648V8.49468C8.26648 7.65923 8.94617 6.97949 9.78167 6.97949C10.6101 6.97949 11.2894 7.65262 11.2969 8.48052V20.2516C11.2969 21.6825 9.97723 22.785 8.58523 22.5658C7.46773 22.3885 6.61057 21.3889 6.61057 20.2518C6.61057 19.8637 6.70207 19.4946 6.88259 19.1548L5.64064 18.4952C5.3974 18.9532 5.25228 19.4621 5.21459 19.9811C3.88573 19.9683 2.78642 18.7484 2.90417 17.4287C3.01278 16.2396 4.05251 15.2954 5.23742 15.2954C5.54257 15.2954 5.84121 15.3544 6.11928 15.4673C6.06443 16.2157 6.40676 17.0723 6.95637 17.5725L7.90296 16.5326C7.67023 16.3207 7.53392 16.0309 7.51915 15.7166C7.50438 15.4022 7.61295 15.1009 7.82482 14.8681C8.05714 14.6129 8.42642 14.4888 8.95371 14.4888H9.65684L9.65693 11.5227H8.25068L8.25064 13.1428C7.62298 13.2573 6.98299 13.6228 6.60265 14.1462C6.17051 13.9772 5.70875 13.8892 5.23751 13.8892C5.00815 13.8892 4.7839 13.911 4.56584 13.9506C4.3129 13.6744 4.17176 13.316 4.17176 12.9313Z" fill="#66A3FF"/>
<path d="M10.189 4.14222V2.73597H7.36927L4.97625 3.97169L3.36637 2.35596L2.52577 2.48993L2.36395 3.35838L8.9858 9.98814L9.98198 8.99561L6.01748 5.01672L7.71094 4.14222H10.189Z" fill="#E6F2F2"/>
<path d="M0.994359 0L0 0.994359L2.36395 3.35831L3.36637 2.35589L0.994359 0Z" fill="#333E73"/>
<path d="M14.0463 9.0083L19.9586 3.06244L20.9557 4.05384L15.0434 9.99971L14.0463 9.0083Z" fill="#1F3259"/>
<path d="M23.479 0.513658C24.1708 1.20141 24.1741 2.31971 23.4863 3.01149L20.752 5.76197C20.7135 5.80078 20.6507 5.80097 20.6118 5.76239L18.2472 3.41166C18.2084 3.37308 18.2082 3.31031 18.2468 3.27146L20.9811 0.520971C21.6689 -0.170764 22.7872 -0.174092 23.479 0.513658Z" fill="#80BFFF"/>
</g>
<defs>
<clipPath id="clip0_2011_727">
<rect width="24" height="24" fill="white"/>
</clipPath>
</defs>
</svg>
